<mxfile host="app.diagrams.net" modified="2023-08-16T00:59:54.149Z" agent="Mozilla/5.0 (Windows NT 10.0; Win64; x64) AppleWebKit/537.36 (KHTML, like Gecko) Chrome/115.0.0.0 Safari/537.36" etag="-yRkof5x0YjzY9ubhkqg" version="21.6.8" type="github">
  <diagram name="Page-1" id="2XYOlN9naNay4gpPBk_H">
    <mxGraphModel dx="1178" dy="788" grid="1" gridSize="10" guides="1" tooltips="1" connect="1" arrows="1" fold="1" page="1" pageScale="1" pageWidth="850" pageHeight="1100" math="0" shadow="0">
      <root>
        <mxCell id="0" />
        <mxCell id="1" parent="0" />
        <mxCell id="ol6Ew_md0vNmfq51G8ao-28" value="" style="group" vertex="1" connectable="0" parent="1">
          <mxGeometry x="510" y="210" width="380" height="290" as="geometry" />
        </mxCell>
        <mxCell id="ol6Ew_md0vNmfq51G8ao-16" value="" style="rounded=0;whiteSpace=wrap;html=1;" vertex="1" parent="ol6Ew_md0vNmfq51G8ao-28">
          <mxGeometry width="380" height="290" as="geometry" />
        </mxCell>
        <mxCell id="ol6Ew_md0vNmfq51G8ao-17" value="Confluent&lt;br&gt;Cluster 1" style="sketch=0;outlineConnect=0;fontColor=#232F3E;gradientColor=none;fillColor=#4D27AA;strokeColor=none;dashed=0;verticalLabelPosition=bottom;verticalAlign=top;align=center;html=1;fontSize=12;fontStyle=0;aspect=fixed;pointerEvents=1;shape=mxgraph.aws4.cluster;" vertex="1" parent="ol6Ew_md0vNmfq51G8ao-28">
          <mxGeometry x="70" y="60" width="78" height="78" as="geometry" />
        </mxCell>
        <mxCell id="ol6Ew_md0vNmfq51G8ao-18" value="Confluent&lt;br&gt;Cluster 2" style="sketch=0;outlineConnect=0;fontColor=#232F3E;gradientColor=none;fillColor=#4D27AA;strokeColor=none;dashed=0;verticalLabelPosition=bottom;verticalAlign=top;align=center;html=1;fontSize=12;fontStyle=0;aspect=fixed;pointerEvents=1;shape=mxgraph.aws4.cluster;" vertex="1" parent="ol6Ew_md0vNmfq51G8ao-28">
          <mxGeometry x="220" y="60" width="78" height="78" as="geometry" />
        </mxCell>
        <mxCell id="ol6Ew_md0vNmfq51G8ao-19" value="" style="outlineConnect=0;dashed=0;verticalLabelPosition=bottom;verticalAlign=top;align=center;html=1;shape=mxgraph.aws3.topic_2;fillColor=#D9A741;gradientColor=none;" vertex="1" parent="ol6Ew_md0vNmfq51G8ao-28">
          <mxGeometry x="70" y="180" width="50" height="30" as="geometry" />
        </mxCell>
        <mxCell id="ol6Ew_md0vNmfq51G8ao-20" value="" style="outlineConnect=0;dashed=0;verticalLabelPosition=bottom;verticalAlign=top;align=center;html=1;shape=mxgraph.aws3.topic_2;fillColor=#D9A741;gradientColor=none;" vertex="1" parent="ol6Ew_md0vNmfq51G8ao-28">
          <mxGeometry x="80" y="190" width="50" height="30" as="geometry" />
        </mxCell>
        <mxCell id="ol6Ew_md0vNmfq51G8ao-21" value="" style="outlineConnect=0;dashed=0;verticalLabelPosition=bottom;verticalAlign=top;align=center;html=1;shape=mxgraph.aws3.topic_2;fillColor=#D9A741;gradientColor=none;" vertex="1" parent="ol6Ew_md0vNmfq51G8ao-28">
          <mxGeometry x="90" y="200" width="50" height="30" as="geometry" />
        </mxCell>
        <mxCell id="ol6Ew_md0vNmfq51G8ao-22" value="" style="outlineConnect=0;dashed=0;verticalLabelPosition=bottom;verticalAlign=top;align=center;html=1;shape=mxgraph.aws3.topic_2;fillColor=#D9A741;gradientColor=none;" vertex="1" parent="ol6Ew_md0vNmfq51G8ao-28">
          <mxGeometry x="224" y="180" width="50" height="30" as="geometry" />
        </mxCell>
        <mxCell id="ol6Ew_md0vNmfq51G8ao-23" value="" style="outlineConnect=0;dashed=0;verticalLabelPosition=bottom;verticalAlign=top;align=center;html=1;shape=mxgraph.aws3.topic_2;fillColor=#D9A741;gradientColor=none;" vertex="1" parent="ol6Ew_md0vNmfq51G8ao-28">
          <mxGeometry x="234" y="190" width="50" height="30" as="geometry" />
        </mxCell>
        <mxCell id="ol6Ew_md0vNmfq51G8ao-24" value="" style="outlineConnect=0;dashed=0;verticalLabelPosition=bottom;verticalAlign=top;align=center;html=1;shape=mxgraph.aws3.topic_2;fillColor=#D9A741;gradientColor=none;" vertex="1" parent="ol6Ew_md0vNmfq51G8ao-28">
          <mxGeometry x="244" y="200" width="50" height="30" as="geometry" />
        </mxCell>
        <mxCell id="ol6Ew_md0vNmfq51G8ao-25" value="Semi-Trusted" style="text;html=1;strokeColor=none;fillColor=none;align=center;verticalAlign=middle;whiteSpace=wrap;rounded=0;" vertex="1" parent="ol6Ew_md0vNmfq51G8ao-28">
          <mxGeometry x="145" y="15" width="90" height="30" as="geometry" />
        </mxCell>
        <mxCell id="ol6Ew_md0vNmfq51G8ao-26" value="Topics" style="text;html=1;strokeColor=none;fillColor=none;align=center;verticalAlign=middle;whiteSpace=wrap;rounded=0;" vertex="1" parent="ol6Ew_md0vNmfq51G8ao-28">
          <mxGeometry x="79" y="240" width="60" height="30" as="geometry" />
        </mxCell>
        <mxCell id="ol6Ew_md0vNmfq51G8ao-27" value="Topics" style="text;html=1;strokeColor=none;fillColor=none;align=center;verticalAlign=middle;whiteSpace=wrap;rounded=0;" vertex="1" parent="ol6Ew_md0vNmfq51G8ao-28">
          <mxGeometry x="234" y="240" width="60" height="30" as="geometry" />
        </mxCell>
        <mxCell id="ol6Ew_md0vNmfq51G8ao-29" value="" style="group" vertex="1" connectable="0" parent="1">
          <mxGeometry x="110" y="210" width="380" height="290" as="geometry" />
        </mxCell>
        <mxCell id="ol6Ew_md0vNmfq51G8ao-2" value="" style="rounded=0;whiteSpace=wrap;html=1;" vertex="1" parent="ol6Ew_md0vNmfq51G8ao-29">
          <mxGeometry width="380" height="290" as="geometry" />
        </mxCell>
        <mxCell id="ol6Ew_md0vNmfq51G8ao-3" value="Confluent&lt;br&gt;Cluster 1" style="sketch=0;outlineConnect=0;fontColor=#232F3E;gradientColor=none;fillColor=#4D27AA;strokeColor=none;dashed=0;verticalLabelPosition=bottom;verticalAlign=top;align=center;html=1;fontSize=12;fontStyle=0;aspect=fixed;pointerEvents=1;shape=mxgraph.aws4.cluster;" vertex="1" parent="ol6Ew_md0vNmfq51G8ao-29">
          <mxGeometry x="70" y="60" width="78" height="78" as="geometry" />
        </mxCell>
        <mxCell id="ol6Ew_md0vNmfq51G8ao-4" value="Confluent&lt;br&gt;Cluster 2" style="sketch=0;outlineConnect=0;fontColor=#232F3E;gradientColor=none;fillColor=#4D27AA;strokeColor=none;dashed=0;verticalLabelPosition=bottom;verticalAlign=top;align=center;html=1;fontSize=12;fontStyle=0;aspect=fixed;pointerEvents=1;shape=mxgraph.aws4.cluster;" vertex="1" parent="ol6Ew_md0vNmfq51G8ao-29">
          <mxGeometry x="220" y="60" width="78" height="78" as="geometry" />
        </mxCell>
        <mxCell id="ol6Ew_md0vNmfq51G8ao-5" value="" style="outlineConnect=0;dashed=0;verticalLabelPosition=bottom;verticalAlign=top;align=center;html=1;shape=mxgraph.aws3.topic_2;fillColor=#D9A741;gradientColor=none;" vertex="1" parent="ol6Ew_md0vNmfq51G8ao-29">
          <mxGeometry x="70" y="180" width="50" height="30" as="geometry" />
        </mxCell>
        <mxCell id="ol6Ew_md0vNmfq51G8ao-6" value="" style="outlineConnect=0;dashed=0;verticalLabelPosition=bottom;verticalAlign=top;align=center;html=1;shape=mxgraph.aws3.topic_2;fillColor=#D9A741;gradientColor=none;" vertex="1" parent="ol6Ew_md0vNmfq51G8ao-29">
          <mxGeometry x="80" y="190" width="50" height="30" as="geometry" />
        </mxCell>
        <mxCell id="ol6Ew_md0vNmfq51G8ao-7" value="" style="outlineConnect=0;dashed=0;verticalLabelPosition=bottom;verticalAlign=top;align=center;html=1;shape=mxgraph.aws3.topic_2;fillColor=#D9A741;gradientColor=none;" vertex="1" parent="ol6Ew_md0vNmfq51G8ao-29">
          <mxGeometry x="90" y="200" width="50" height="30" as="geometry" />
        </mxCell>
        <mxCell id="ol6Ew_md0vNmfq51G8ao-9" value="" style="outlineConnect=0;dashed=0;verticalLabelPosition=bottom;verticalAlign=top;align=center;html=1;shape=mxgraph.aws3.topic_2;fillColor=#D9A741;gradientColor=none;" vertex="1" parent="ol6Ew_md0vNmfq51G8ao-29">
          <mxGeometry x="224" y="180" width="50" height="30" as="geometry" />
        </mxCell>
        <mxCell id="ol6Ew_md0vNmfq51G8ao-10" value="" style="outlineConnect=0;dashed=0;verticalLabelPosition=bottom;verticalAlign=top;align=center;html=1;shape=mxgraph.aws3.topic_2;fillColor=#D9A741;gradientColor=none;" vertex="1" parent="ol6Ew_md0vNmfq51G8ao-29">
          <mxGeometry x="234" y="190" width="50" height="30" as="geometry" />
        </mxCell>
        <mxCell id="ol6Ew_md0vNmfq51G8ao-11" value="" style="outlineConnect=0;dashed=0;verticalLabelPosition=bottom;verticalAlign=top;align=center;html=1;shape=mxgraph.aws3.topic_2;fillColor=#D9A741;gradientColor=none;" vertex="1" parent="ol6Ew_md0vNmfq51G8ao-29">
          <mxGeometry x="244" y="200" width="50" height="30" as="geometry" />
        </mxCell>
        <mxCell id="ol6Ew_md0vNmfq51G8ao-12" value="Trusted" style="text;html=1;strokeColor=none;fillColor=none;align=center;verticalAlign=middle;whiteSpace=wrap;rounded=0;" vertex="1" parent="ol6Ew_md0vNmfq51G8ao-29">
          <mxGeometry x="160" y="20" width="60" height="30" as="geometry" />
        </mxCell>
        <mxCell id="ol6Ew_md0vNmfq51G8ao-13" value="Topics" style="text;html=1;strokeColor=none;fillColor=none;align=center;verticalAlign=middle;whiteSpace=wrap;rounded=0;" vertex="1" parent="ol6Ew_md0vNmfq51G8ao-29">
          <mxGeometry x="79" y="240" width="60" height="30" as="geometry" />
        </mxCell>
        <mxCell id="ol6Ew_md0vNmfq51G8ao-14" value="Topics" style="text;html=1;strokeColor=none;fillColor=none;align=center;verticalAlign=middle;whiteSpace=wrap;rounded=0;" vertex="1" parent="ol6Ew_md0vNmfq51G8ao-29">
          <mxGeometry x="234" y="240" width="60" height="30" as="geometry" />
        </mxCell>
        <mxCell id="ol6Ew_md0vNmfq51G8ao-49" style="edgeStyle=orthogonalEdgeStyle;rounded=0;orthogonalLoop=1;jettySize=auto;html=1;entryX=0.49;entryY=0.042;entryDx=0;entryDy=0;entryPerimeter=0;" edge="1" parent="1" source="ol6Ew_md0vNmfq51G8ao-44">
          <mxGeometry relative="1" as="geometry">
            <mxPoint x="141.3599999999999" y="702.6880000000001" as="targetPoint" />
          </mxGeometry>
        </mxCell>
        <mxCell id="ol6Ew_md0vNmfq51G8ao-53" style="edgeStyle=orthogonalEdgeStyle;rounded=0;orthogonalLoop=1;jettySize=auto;html=1;" edge="1" parent="1" source="ol6Ew_md0vNmfq51G8ao-44" target="ol6Ew_md0vNmfq51G8ao-52">
          <mxGeometry relative="1" as="geometry" />
        </mxCell>
        <mxCell id="ol6Ew_md0vNmfq51G8ao-44" value="Trusted&lt;br&gt;Workflow" style="shape=image;html=1;verticalAlign=top;verticalLabelPosition=bottom;labelBackgroundColor=#ffffff;imageAspect=0;aspect=fixed;image=https://cdn1.iconfinder.com/data/icons/picons-social/57/github-128.png" vertex="1" parent="1">
          <mxGeometry x="280" y="570" width="84" height="84" as="geometry" />
        </mxCell>
        <mxCell id="ol6Ew_md0vNmfq51G8ao-51" style="edgeStyle=orthogonalEdgeStyle;rounded=0;orthogonalLoop=1;jettySize=auto;html=1;entryX=0.948;entryY=0.563;entryDx=0;entryDy=0;entryPerimeter=0;" edge="1" parent="1" source="ol6Ew_md0vNmfq51G8ao-45">
          <mxGeometry relative="1" as="geometry">
            <mxPoint x="170.67200000000003" y="736.0319999999999" as="targetPoint" />
          </mxGeometry>
        </mxCell>
        <mxCell id="ol6Ew_md0vNmfq51G8ao-54" style="edgeStyle=orthogonalEdgeStyle;rounded=0;orthogonalLoop=1;jettySize=auto;html=1;" edge="1" parent="1" source="ol6Ew_md0vNmfq51G8ao-45" target="ol6Ew_md0vNmfq51G8ao-52">
          <mxGeometry relative="1" as="geometry" />
        </mxCell>
        <mxCell id="ol6Ew_md0vNmfq51G8ao-45" value="Semi-Trusted&lt;br&gt;Workflow" style="shape=image;html=1;verticalAlign=top;verticalLabelPosition=bottom;labelBackgroundColor=#ffffff;imageAspect=0;aspect=fixed;image=https://cdn1.iconfinder.com/data/icons/picons-social/57/github-128.png" vertex="1" parent="1">
          <mxGeometry x="280" y="694" width="84" height="84" as="geometry" />
        </mxCell>
        <mxCell id="ol6Ew_md0vNmfq51G8ao-50" style="edgeStyle=orthogonalEdgeStyle;rounded=0;orthogonalLoop=1;jettySize=auto;html=1;" edge="1" parent="1" source="ol6Ew_md0vNmfq51G8ao-46">
          <mxGeometry relative="1" as="geometry">
            <mxPoint x="142" y="764" as="targetPoint" />
          </mxGeometry>
        </mxCell>
        <mxCell id="ol6Ew_md0vNmfq51G8ao-55" style="edgeStyle=orthogonalEdgeStyle;rounded=0;orthogonalLoop=1;jettySize=auto;html=1;" edge="1" parent="1" source="ol6Ew_md0vNmfq51G8ao-46" target="ol6Ew_md0vNmfq51G8ao-52">
          <mxGeometry relative="1" as="geometry" />
        </mxCell>
        <mxCell id="ol6Ew_md0vNmfq51G8ao-46" value="Un-Trusted&lt;br&gt;Workflow" style="shape=image;html=1;verticalAlign=top;verticalLabelPosition=bottom;labelBackgroundColor=#ffffff;imageAspect=0;aspect=fixed;image=https://cdn1.iconfinder.com/data/icons/picons-social/57/github-128.png" vertex="1" parent="1">
          <mxGeometry x="280" y="810" width="84" height="84" as="geometry" />
        </mxCell>
        <mxCell id="ol6Ew_md0vNmfq51G8ao-52" value="Confluent" style="sketch=0;outlineConnect=0;fontColor=#232F3E;gradientColor=none;fillColor=#4D27AA;strokeColor=none;dashed=0;verticalLabelPosition=bottom;verticalAlign=top;align=center;html=1;fontSize=12;fontStyle=0;aspect=fixed;pointerEvents=1;shape=mxgraph.aws4.cluster;" vertex="1" parent="1">
          <mxGeometry x="472" y="697" width="78" height="78" as="geometry" />
        </mxCell>
        <mxCell id="ol6Ew_md0vNmfq51G8ao-56" value="Github Module" style="verticalLabelPosition=bottom;html=1;verticalAlign=top;align=center;strokeColor=none;fillColor=#00BEF2;shape=mxgraph.azure.git_repository;direction=south;" vertex="1" parent="1">
          <mxGeometry x="116" y="711" width="50" height="50" as="geometry" />
        </mxCell>
      </root>
    </mxGraphModel>
  </diagram>
</mxfile>
